<svg xmlns="http://www.w3.org/2000/svg" xmlns:xlink="http://www.w3.org/1999/xlink" version="1.1" xml:space="preserve" viewBox="1.4 30.82 252.97 194.08">

<defs>
</defs>
<g style="stroke: none; stroke-width: 0; stroke-dasharray: none; stroke-linecap: butt; stroke-linejoin: miter; stroke-miterlimit: 10; fill: none; fill-rule: nonzero; opacity: 1;" transform="translate(1.4065934065934016 1.4065934065934016) scale(2.81 2.81)">
	<path d="M 89.876 78.05 L 71.169 44.02 c -0.352 -0.639 -1.4 -0.639 -1.752 0 l -7.079 12.878 c 0 0 0 0 0 0 l -1.565 2.848 L 46 32.872 v -7.379 V 14.57 v -3.101 c 0 -0.552 -0.448 -1 -1 -1 s -1 0.448 -1 1 v 2.101 H 27.475 c -0.413 0 -0.784 0.254 -0.933 0.639 s -0.046 0.823 0.26 1.101 l 5.192 4.722 l -5.192 4.722 c -0.306 0.278 -0.409 0.715 -0.26 1.101 s 0.52 0.639 0.933 0.639 H 44 v 6.379 L 29.228 59.745 L 20.583 44.02 c -0.352 -0.639 -1.401 -0.639 -1.753 0 L 0.124 78.05 c -0.008 0.015 -0.007 0.032 -0.015 0.047 c -0.029 0.059 -0.042 0.124 -0.059 0.189 c -0.017 0.066 -0.036 0.13 -0.04 0.196 C 0.009 78.5 0 78.514 0 78.531 c 0 0.045 0.02 0.084 0.026 0.128 c 0.009 0.07 0.018 0.138 0.041 0.205 c 0.022 0.061 0.054 0.113 0.086 0.168 c 0.032 0.055 0.063 0.108 0.106 0.157 c 0.047 0.053 0.102 0.093 0.159 0.135 c 0.035 0.026 0.06 0.062 0.099 0.084 c 0.02 0.011 0.041 0.015 0.061 0.024 c 0.026 0.012 0.051 0.021 0.078 0.031 c 0.112 0.041 0.227 0.069 0.342 0.069 c 0 0 0 0 0.001 0 c 0 0 0 0 0 0 h 19.042 h 49.917 H 89 c 0.354 0 0.681 -0.187 0.86 -0.491 C 90.041 78.736 90.047 78.359 89.876 78.05 z M 76.137 57.207 l -2.281 2.308 l -2.983 -2.857 c -0.192 -0.186 -0.442 -0.278 -0.691 -0.278 c -0.244 0 -0.487 0.089 -0.68 0.267 l -3.074 2.845 l -1.997 -2.248 l 5.863 -10.665 L 76.137 57.207 z M 45 35.205 l 8.209 14.933 l -3.449 3.49 l -4.218 -4.04 c -0.193 -0.186 -0.442 -0.278 -0.692 -0.278 c -0.244 0 -0.487 0.089 -0.679 0.267 l -4.352 4.027 l -3.047 -3.431 L 45 35.205 z M 30.061 24.493 l 4.093 -3.722 c 0.208 -0.189 0.327 -0.458 0.327 -0.74 s -0.119 -0.55 -0.327 -0.74 l -4.093 -3.722 H 44 v 8.923 H 30.061 z M 19.45 77.531 H 2.691 l 10.131 -18.429 l 2.202 2.479 c 0.178 0.201 0.43 0.321 0.699 0.335 c 0.27 0.018 0.531 -0.083 0.728 -0.266 l 3.132 -2.898 l 3.014 2.887 c 0.194 0.186 0.443 0.278 0.692 0.278 c 0.258 0 0.516 -0.1 0.711 -0.297 l 2.555 -2.586 l 1.531 2.785 L 19.45 77.531 z M 25.55 57.207 l -2.28 2.308 l -2.983 -2.857 c -0.193 -0.186 -0.442 -0.278 -0.692 -0.278 c -0.244 0 -0.487 0.089 -0.679 0.267 l -3.074 2.845 l -1.997 -2.248 l 5.863 -10.665 L 25.55 57.207 z M 21.732 77.531 l 14.017 -25.498 l 3.253 3.662 c 0.178 0.201 0.43 0.321 0.699 0.335 c 0.016 0.001 0.033 0.001 0.049 0.001 c 0.251 0 0.494 -0.095 0.679 -0.267 l 4.41 -4.081 l 4.25 4.069 c 0.394 0.378 1.018 0.369 1.402 -0.019 l 3.723 -3.769 l 14.054 25.566 H 21.732 z M 70.549 77.531 l -8.636 -15.711 l 1.494 -2.718 l 2.202 2.479 c 0.179 0.201 0.431 0.321 0.699 0.335 c 0.269 0.017 0.53 -0.082 0.729 -0.266 l 3.132 -2.898 l 3.015 2.887 c 0.193 0.186 0.442 0.278 0.691 0.278 c 0.258 0 0.516 -0.1 0.711 -0.297 l 2.555 -2.586 L 87.31 77.531 H 70.549 z" style="stroke: none; stroke-width: 1; stroke-dasharray: none; stroke-linecap: butt; stroke-linejoin: miter; stroke-miterlimit: 10; fill: rgb(0,0,0); fill-rule: nonzero; opacity: 1;" transform=" matrix(1 0 0 1 0 0) " stroke-linecap="round"/>
</g>
</svg>