<svg xmlns="http://www.w3.org/2000/svg" xmlns:xlink="http://www.w3.org/1999/xlink" version="1.1" xml:space="preserve" viewBox="1.35 30.82 253.02 194.08">

<defs>
</defs>
<g style="stroke: none; stroke-width: 0; stroke-dasharray: none; stroke-linecap: butt; stroke-linejoin: miter; stroke-miterlimit: 10; fill: none; fill-rule: nonzero; opacity: 1;" transform="translate(1.4065934065934016 1.4065934065934016) scale(2.81 2.81)">
	<polyline points="51.59,78.53 70.29,44.5 89,78.53 51.59,78.53 " style="stroke: none; stroke-width: 1; stroke-dasharray: none; stroke-linecap: butt; stroke-linejoin: miter; stroke-miterlimit: 10; fill: rgb(54,94,125); fill-rule: nonzero; opacity: 1;" transform="  matrix(1 0 0 1 0 0) "/>
	<polygon points="77.37,57.38 73.88,60.92 70.18,57.38 66.36,60.92 63.21,57.38 70.29,44.5 " style="stroke: none; stroke-width: 1; stroke-dasharray: none; stroke-linecap: butt; stroke-linejoin: miter; stroke-miterlimit: 10; fill: rgb(205,232,255); fill-rule: nonzero; opacity: 1;" transform="  matrix(1 0 0 1 0 0) "/>
	<path d="M 89 79.531 H 51.586 c -0.354 0 -0.681 -0.187 -0.86 -0.491 c -0.181 -0.304 -0.187 -0.681 -0.016 -0.99 l 18.707 -34.03 c 0.352 -0.639 1.4 -0.639 1.752 0 l 18.707 34.03 c 0.171 0.31 0.165 0.687 -0.016 0.99 C 89.681 79.345 89.354 79.531 89 79.531 z M 53.276 77.531 H 87.31 L 70.293 46.577 L 53.276 77.531 z" style="stroke: none; stroke-width: 1; stroke-dasharray: none; stroke-linecap: butt; stroke-linejoin: miter; stroke-miterlimit: 10; fill: rgb(0,0,0); fill-rule: nonzero; opacity: 1;" transform=" matrix(1 0 0 1 0 0) " stroke-linecap="round"/>
	<path d="M 73.875 61.918 c -0.249 0 -0.498 -0.093 -0.691 -0.278 l -3.015 -2.887 l -3.132 2.898 c -0.198 0.184 -0.46 0.282 -0.729 0.266 c -0.269 -0.014 -0.521 -0.134 -0.699 -0.335 l -3.144 -3.539 c -0.28 -0.316 -0.332 -0.775 -0.128 -1.146 l 7.079 -12.878 c 0.352 -0.639 1.4 -0.639 1.752 0 l 7.079 12.878 c 0.214 0.388 0.146 0.869 -0.165 1.185 l -3.497 3.539 C 74.391 61.818 74.133 61.918 73.875 61.918 z M 70.181 56.379 c 0.249 0 0.499 0.093 0.691 0.278 l 2.983 2.857 l 2.281 -2.308 l -5.844 -10.63 L 64.43 57.242 l 1.997 2.248 l 3.074 -2.845 C 69.693 56.468 69.937 56.379 70.181 56.379 z" style="stroke: none; stroke-width: 1; stroke-dasharray: none; stroke-linecap: butt; stroke-linejoin: miter; stroke-miterlimit: 10; fill: rgb(0,0,0); fill-rule: nonzero; opacity: 1;" transform=" matrix(1 0 0 1 0 0) " stroke-linecap="round"/>
	<polyline points="1,78.53 19.71,44.5 38.41,78.53 1,78.53 " style="stroke: none; stroke-width: 1; stroke-dasharray: none; stroke-linecap: butt; stroke-linejoin: miter; stroke-miterlimit: 10; fill: rgb(54,94,125); fill-rule: nonzero; opacity: 1;" transform="  matrix(1 0 0 1 0 0) "/>
	<polygon points="26.79,57.38 23.29,60.92 19.59,57.38 15.77,60.92 12.63,57.38 19.71,44.5 " style="stroke: none; stroke-width: 1; stroke-dasharray: none; stroke-linecap: butt; stroke-linejoin: miter; stroke-miterlimit: 10; fill: rgb(205,232,255); fill-rule: nonzero; opacity: 1;" transform="  matrix(1 0 0 1 0 0) "/>
	<path d="M 38.414 79.531 H 1 c -0.354 0 -0.681 -0.187 -0.861 -0.491 c -0.18 -0.304 -0.186 -0.681 -0.016 -0.99 l 18.707 -34.03 c 0.352 -0.639 1.401 -0.639 1.753 0 L 39.29 78.05 c 0.17 0.31 0.164 0.687 -0.016 0.99 C 39.094 79.345 38.767 79.531 38.414 79.531 z M 2.691 77.531 h 34.032 L 19.707 46.577 L 2.691 77.531 z" style="stroke: none; stroke-width: 1; stroke-dasharray: none; stroke-linecap: butt; stroke-linejoin: miter; stroke-miterlimit: 10; fill: rgb(0,0,0); fill-rule: nonzero; opacity: 1;" transform=" matrix(1 0 0 1 0 0) " stroke-linecap="round"/>
	<path d="M 23.289 61.918 c -0.249 0 -0.498 -0.093 -0.692 -0.278 l -3.014 -2.887 l -3.132 2.898 c -0.197 0.183 -0.458 0.283 -0.728 0.266 c -0.269 -0.014 -0.521 -0.134 -0.699 -0.335 l -3.144 -3.539 c -0.281 -0.316 -0.333 -0.775 -0.129 -1.146 l 7.079 -12.878 c 0.352 -0.639 1.401 -0.639 1.753 0 l 7.079 12.878 c 0.213 0.388 0.146 0.869 -0.165 1.185 L 24 61.621 C 23.805 61.818 23.547 61.918 23.289 61.918 z M 19.595 56.379 c 0.25 0 0.499 0.093 0.692 0.278 l 2.983 2.857 l 2.28 -2.308 l -5.843 -10.63 l -5.863 10.665 l 1.997 2.248 l 3.074 -2.845 C 19.107 56.468 19.351 56.379 19.595 56.379 z" style="stroke: none; stroke-width: 1; stroke-dasharray: none; stroke-linecap: butt; stroke-linejoin: miter; stroke-miterlimit: 10; fill: rgb(0,0,0); fill-rule: nonzero; opacity: 1;" transform=" matrix(1 0 0 1 0 0) " stroke-linecap="round"/>
	<polygon points="27.48,25.49 45,25.49 45,14.57 27.48,14.57 33.48,20.03 " style="stroke: none; stroke-width: 1; stroke-dasharray: none; stroke-linecap: butt; stroke-linejoin: miter; stroke-miterlimit: 10; fill: rgb(252,98,113); fill-rule: nonzero; opacity: 1;" transform="  matrix(1 0 0 1 0 0) "/>
	<polyline points="20.04,78.53 45,33.13 69.96,78.53 20.04,78.53 " style="stroke: none; stroke-width: 1; stroke-dasharray: none; stroke-linecap: butt; stroke-linejoin: miter; stroke-miterlimit: 10; fill: rgb(71,123,158); fill-rule: nonzero; opacity: 1;" transform="  matrix(1 0 0 1 0 0) "/>
	<polygon points="54.45,50.31 49.78,55.03 44.85,50.31 39.75,55.03 35.55,50.31 45,33.13 " style="stroke: none; stroke-width: 1; stroke-dasharray: none; stroke-linecap: butt; stroke-linejoin: miter; stroke-miterlimit: 10; fill: rgb(205,232,255); fill-rule: nonzero; opacity: 1;" transform="  matrix(1 0 0 1 0 0) "/>
	<path d="M 69.958 79.531 H 20.042 c -0.354 0 -0.681 -0.187 -0.861 -0.491 c -0.18 -0.304 -0.186 -0.681 -0.016 -0.99 l 24.958 -45.402 c 0.176 -0.319 0.512 -0.518 0.876 -0.518 l 0 0 c 0.365 0 0.701 0.199 0.876 0.518 L 70.834 78.05 c 0.171 0.31 0.165 0.687 -0.016 0.99 C 70.639 79.345 70.312 79.531 69.958 79.531 z M 21.732 77.531 h 46.535 L 45 35.205 L 21.732 77.531 z" style="stroke: none; stroke-width: 1; stroke-dasharray: none; stroke-linecap: butt; stroke-linejoin: miter; stroke-miterlimit: 10; fill: rgb(0,0,0); fill-rule: nonzero; opacity: 1;" transform=" matrix(1 0 0 1 0 0) " stroke-linecap="round"/>
	<path d="M 45 34.129 c -0.552 0 -1 -0.448 -1 -1 V 11.469 c 0 -0.552 0.448 -1 1 -1 s 1 0.448 1 1 v 21.661 C 46 33.682 45.552 34.129 45 34.129 z" style="stroke: none; stroke-width: 1; stroke-dasharray: none; stroke-linecap: butt; stroke-linejoin: miter; stroke-miterlimit: 10; fill: rgb(0,0,0); fill-rule: nonzero; opacity: 1;" transform=" matrix(1 0 0 1 0 0) " stroke-linecap="round"/>
	<path d="M 45 26.493 H 27.475 c -0.413 0 -0.784 -0.254 -0.933 -0.639 s -0.046 -0.823 0.26 -1.101 l 5.192 -4.722 l -5.192 -4.722 c -0.306 -0.278 -0.409 -0.715 -0.26 -1.101 s 0.52 -0.639 0.933 -0.639 H 45 c 0.552 0 1 0.448 1 1 v 10.923 C 46 26.045 45.552 26.493 45 26.493 z M 30.061 24.493 H 44 V 15.57 H 30.061 l 4.093 3.722 c 0.208 0.189 0.327 0.458 0.327 0.74 s -0.119 0.55 -0.327 0.74 L 30.061 24.493 z" style="stroke: none; stroke-width: 1; stroke-dasharray: none; stroke-linecap: butt; stroke-linejoin: miter; stroke-miterlimit: 10; fill: rgb(0,0,0); fill-rule: nonzero; opacity: 1;" transform=" matrix(1 0 0 1 0 0) " stroke-linecap="round"/>
	<path d="M 39.75 56.031 c -0.016 0 -0.033 0 -0.049 -0.001 c -0.269 -0.014 -0.521 -0.134 -0.699 -0.335 l -4.194 -4.722 c -0.281 -0.316 -0.333 -0.775 -0.129 -1.146 l 9.444 -17.181 c 0.352 -0.639 1.401 -0.639 1.753 0 l 9.444 17.181 c 0.214 0.388 0.146 0.869 -0.165 1.185 l -4.665 4.722 c -0.385 0.388 -1.009 0.396 -1.402 0.019 l -4.25 -4.069 l -4.41 4.081 C 40.244 55.937 40.001 56.031 39.75 56.031 z M 44.85 49.31 c 0.25 0 0.499 0.093 0.692 0.278 l 4.218 4.04 l 3.449 -3.49 L 45 35.205 l -8.228 14.968 l 3.047 3.431 l 4.352 -4.027 C 44.363 49.398 44.606 49.31 44.85 49.31 z" style="stroke: none; stroke-width: 1; stroke-dasharray: none; stroke-linecap: butt; stroke-linejoin: miter; stroke-miterlimit: 10; fill: rgb(0,0,0); fill-rule: nonzero; opacity: 1;" transform=" matrix(1 0 0 1 0 0) " stroke-linecap="round"/>
</g>
</svg>