<svg xmlns="http://www.w3.org/2000/svg" xmlns:xlink="http://www.w3.org/1999/xlink" version="1.1" width="256" height="256" viewBox="0 0 256 256" xml:space="preserve">

<defs>
</defs>
<g style="stroke: none; stroke-width: 0; stroke-dasharray: none; stroke-linecap: butt; stroke-linejoin: miter; stroke-miterlimit: 10; fill: none; fill-rule: nonzero; opacity: 1;" transform="translate(1.4065934065934016 1.4065934065934016) scale(2.81 2.81)" >
	<path d="M 61.74 78.027 H 28.26 C 12.677 78.027 0 65.35 0 49.768 c 0 -15.583 12.677 -28.26 28.26 -28.26 h 44.389 c 2.762 0 5 2.239 5 5 s -2.238 5 -5 5 H 28.26 c -10.068 0 -18.26 8.191 -18.26 18.26 c 0 10.068 8.191 18.26 18.26 18.26 h 33.48 c 10.068 0 18.26 -8.191 18.26 -18.26 c 0 -2.419 -0.464 -4.766 -1.378 -6.977 c -1.056 -2.551 0.157 -5.476 2.709 -6.531 c 2.552 -1.058 5.476 0.157 6.531 2.709 C 89.281 42.397 90 46.03 90 49.768 C 90 65.35 77.322 78.027 61.74 78.027 z" style="stroke: none; stroke-width: 1; stroke-dasharray: none; stroke-linecap: butt; stroke-linejoin: miter; stroke-miterlimit: 10; fill: rgb(0,0,0); fill-rule: nonzero; opacity: 1;" transform=" matrix(1 0 0 1 0 0) " stroke-linecap="round" />
	<path d="M 59.43 41.042 c -1.552 0 -3.082 -0.721 -4.06 -2.076 c -1.615 -2.24 -1.108 -5.365 1.131 -6.98 l 7.599 -5.479 l -7.599 -5.479 c -2.239 -1.615 -2.746 -4.74 -1.131 -6.98 c 1.616 -2.241 4.741 -2.745 6.98 -1.131 l 13.223 9.535 c 1.303 0.94 2.075 2.449 2.075 4.056 s -0.772 3.116 -2.075 4.056 l -13.223 9.535 C 61.466 40.735 60.443 41.042 59.43 41.042 z" style="stroke: none; stroke-width: 1; stroke-dasharray: none; stroke-linecap: butt; stroke-linejoin: miter; stroke-miterlimit: 10; fill: rgb(0,0,0); fill-rule: nonzero; opacity: 1;" transform=" matrix(1 0 0 1 0 0) " stroke-linecap="round" />
</g>
</svg>