<svg xmlns="http://www.w3.org/2000/svg" xmlns:xlink="http://www.w3.org/1999/xlink" version="1.1" xml:space="preserve" viewBox="1.4 31.98 252.92 191.75">

<defs>
</defs>
<g style="stroke: none; stroke-width: 0; stroke-dasharray: none; stroke-linecap: butt; stroke-linejoin: miter; stroke-miterlimit: 10; fill: none; fill-rule: nonzero; opacity: 1;" transform="translate(1.4065934065934016 1.4065934065934016) scale(2.81 2.81)">
	<polygon points="23,11.9 1,19.45 1,78.1 23,70.56 " style="stroke: none; stroke-width: 1; stroke-dasharray: none; stroke-linecap: butt; stroke-linejoin: miter; stroke-miterlimit: 10; fill: rgb(14,171,97); fill-rule: nonzero; opacity: 1;" transform="  matrix(1 0 0 1 0 0) "/>
	<polygon points="23,11.9 45,19.45 45,78.1 23,70.56 " style="stroke: none; stroke-width: 1; stroke-dasharray: none; stroke-linecap: butt; stroke-linejoin: miter; stroke-miterlimit: 10; fill: rgb(93,201,131); fill-rule: nonzero; opacity: 1;" transform="  matrix(1 0 0 1 0 0) "/>
	<polygon points="67,11.9 45,19.45 45,78.1 67,70.56 " style="stroke: none; stroke-width: 1; stroke-dasharray: none; stroke-linecap: butt; stroke-linejoin: miter; stroke-miterlimit: 10; fill: rgb(14,171,97); fill-rule: nonzero; opacity: 1;" transform="  matrix(1 0 0 1 0 0) "/>
	<polygon points="67,11.9 89,19.45 89,78.1 67,70.56 " style="stroke: none; stroke-width: 1; stroke-dasharray: none; stroke-linecap: butt; stroke-linejoin: miter; stroke-miterlimit: 10; fill: rgb(93,201,131); fill-rule: nonzero; opacity: 1;" transform="  matrix(1 0 0 1 0 0) "/>
	<path d="M 1 79.103 c -0.206 0 -0.409 -0.063 -0.581 -0.187 C 0.156 78.729 0 78.426 0 78.103 V 19.445 c 0 -0.427 0.271 -0.807 0.675 -0.946 l 22 -7.547 c 0.306 -0.104 0.643 -0.055 0.906 0.132 C 23.844 11.271 24 11.575 24 11.897 v 58.658 c 0 0.427 -0.271 0.808 -0.675 0.946 l -22 7.547 C 1.219 79.085 1.109 79.103 1 79.103 z M 2 20.159 v 56.543 l 20 -6.86 V 13.298 L 2 20.159 z" style="stroke: none; stroke-width: 1; stroke-dasharray: none; stroke-linecap: butt; stroke-linejoin: miter; stroke-miterlimit: 10; fill: rgb(0,0,0); fill-rule: nonzero; opacity: 1;" transform=" matrix(1 0 0 1 0 0) " stroke-linecap="round"/>
	<path d="M 45 79.103 c -0.109 0 -0.219 -0.018 -0.325 -0.054 l -22 -7.547 C 22.271 71.363 22 70.982 22 70.556 V 11.897 c 0 -0.323 0.156 -0.626 0.419 -0.814 c 0.263 -0.187 0.599 -0.237 0.906 -0.132 l 22 7.547 C 45.729 18.638 46 19.018 46 19.445 v 58.658 c 0 0.323 -0.156 0.626 -0.419 0.813 C 45.409 79.039 45.206 79.103 45 79.103 z M 24 69.842 l 20 6.86 V 20.159 l -20 -6.861 V 69.842 z" style="stroke: none; stroke-width: 1; stroke-dasharray: none; stroke-linecap: butt; stroke-linejoin: miter; stroke-miterlimit: 10; fill: rgb(0,0,0); fill-rule: nonzero; opacity: 1;" transform=" matrix(1 0 0 1 0 0) " stroke-linecap="round"/>
	<path d="M 45 79.103 c -0.206 0 -0.409 -0.063 -0.581 -0.187 C 44.156 78.729 44 78.426 44 78.103 V 19.445 c 0 -0.427 0.271 -0.807 0.675 -0.946 l 22 -7.547 c 0.306 -0.103 0.643 -0.056 0.905 0.132 C 67.844 11.271 68 11.575 68 11.897 v 58.658 c 0 0.427 -0.271 0.808 -0.676 0.946 l -22 7.547 C 45.219 79.085 45.109 79.103 45 79.103 z M 46 20.159 v 56.543 l 20 -6.86 V 13.298 L 46 20.159 z" style="stroke: none; stroke-width: 1; stroke-dasharray: none; stroke-linecap: butt; stroke-linejoin: miter; stroke-miterlimit: 10; fill: rgb(0,0,0); fill-rule: nonzero; opacity: 1;" transform=" matrix(1 0 0 1 0 0) " stroke-linecap="round"/>
	<path d="M 89 79.103 c -0.109 0 -0.219 -0.018 -0.324 -0.054 l -22 -7.547 C 66.271 71.363 66 70.982 66 70.556 V 11.897 c 0 -0.323 0.156 -0.626 0.419 -0.814 s 0.601 -0.237 0.905 -0.132 l 22 7.547 C 89.729 18.638 90 19.018 90 19.445 v 58.658 c 0 0.323 -0.156 0.626 -0.419 0.813 C 89.409 79.039 89.206 79.103 89 79.103 z M 68 69.842 l 20 6.86 V 20.159 l -20 -6.861 V 69.842 z" style="stroke: none; stroke-width: 1; stroke-dasharray: none; stroke-linecap: butt; stroke-linejoin: miter; stroke-miterlimit: 10; fill: rgb(0,0,0); fill-rule: nonzero; opacity: 1;" transform=" matrix(1 0 0 1 0 0) " stroke-linecap="round"/>
	<path d="M 23 60.496 c 4.5 -5.505 9 -12.596 9 -17.567 s -4.029 -9 -9 -9 s -9 4.029 -9 9 S 18.5 54.991 23 60.496 z" style="stroke: none; stroke-width: 1; stroke-dasharray: none; stroke-linecap: butt; stroke-linejoin: miter; stroke-miterlimit: 10; fill: rgb(238,54,22); fill-rule: nonzero; opacity: 1;" transform=" matrix(1 0 0 1 0 0) " stroke-linecap="round"/>
	<circle cx="23.003" cy="43.233000000000004" r="3.393" style="stroke: none; stroke-width: 1; stroke-dasharray: none; stroke-linecap: butt; stroke-linejoin: miter; stroke-miterlimit: 10; fill: rgb(255,255,255); fill-rule: nonzero; opacity: 1;" transform="  matrix(1 0 0 1 0 0) "/>
	<path d="M 23 61.496 c -0.3 0 -0.584 -0.135 -0.774 -0.367 C 19.452 57.735 13 49.169 13 42.929 c 0 -5.514 4.486 -10 10 -10 s 10 4.486 10 10 c 0 6.24 -6.452 14.807 -9.226 18.2 C 23.584 61.361 23.3 61.496 23 61.496 z M 23 34.929 c -4.411 0 -8 3.589 -8 8 c 0 3.696 2.974 9.612 8 15.972 c 5.026 -6.359 8 -12.275 8 -15.972 C 31 38.518 27.411 34.929 23 34.929 z" style="stroke: none; stroke-width: 1; stroke-dasharray: none; stroke-linecap: butt; stroke-linejoin: miter; stroke-miterlimit: 10; fill: rgb(0,0,0); fill-rule: nonzero; opacity: 1;" transform=" matrix(1 0 0 1 0 0) " stroke-linecap="round"/>
	<path d="M 23 47.629 c -2.422 0 -4.393 -1.971 -4.393 -4.393 s 1.971 -4.393 4.393 -4.393 s 4.393 1.971 4.393 4.393 S 25.422 47.629 23 47.629 z M 23 40.843 c -1.319 0 -2.393 1.074 -2.393 2.393 s 1.074 2.393 2.393 2.393 s 2.393 -1.074 2.393 -2.393 S 24.319 40.843 23 40.843 z" style="stroke: none; stroke-width: 1; stroke-dasharray: none; stroke-linecap: butt; stroke-linejoin: miter; stroke-miterlimit: 10; fill: rgb(0,0,0); fill-rule: nonzero; opacity: 1;" transform=" matrix(1 0 0 1 0 0) " stroke-linecap="round"/>
	<polygon points="74.5,29.33 69.73,24.55 67,27.28 64.27,24.55 59.5,29.33 62.23,32.05 59.5,34.78 64.27,39.55 67,36.83 69.73,39.55 74.5,34.78 71.77,32.05 " style="stroke: none; stroke-width: 1; stroke-dasharray: none; stroke-linecap: butt; stroke-linejoin: miter; stroke-miterlimit: 10; fill: rgb(255,195,26); fill-rule: nonzero; opacity: 1;" transform="  matrix(1 0 0 1 0 0) "/>
	<path d="M 69.728 40.555 c -0.256 0 -0.512 -0.098 -0.707 -0.293 L 67 38.242 l -2.021 2.02 c -0.391 0.391 -1.023 0.391 -1.414 0 l -4.772 -4.772 c -0.391 -0.391 -0.391 -1.023 0 -1.414 l 2.021 -2.021 l -2.021 -2.02 c -0.188 -0.188 -0.293 -0.442 -0.293 -0.707 s 0.105 -0.52 0.293 -0.707 l 4.772 -4.773 c 0.375 -0.375 1.039 -0.375 1.414 0 L 67 25.869 l 2.021 -2.021 c 0.188 -0.188 0.441 -0.293 0.707 -0.293 l 0 0 c 0.266 0 0.52 0.105 0.707 0.293 l 4.772 4.773 c 0.188 0.188 0.293 0.442 0.293 0.707 s -0.105 0.52 -0.293 0.707 l -2.021 2.02 l 2.021 2.021 c 0.391 0.391 0.391 1.023 0 1.414 l -4.772 4.772 C 70.239 40.458 69.983 40.555 69.728 40.555 z M 67 35.828 c 0.256 0 0.512 0.098 0.707 0.293 l 2.021 2.02 l 3.358 -3.358 l -2.021 -2.021 c -0.188 -0.188 -0.293 -0.442 -0.293 -0.707 s 0.105 -0.52 0.293 -0.707 l 2.021 -2.02 l -3.358 -3.359 l -2.021 2.021 c -0.391 0.391 -1.023 0.391 -1.414 0 l -2.021 -2.021 l -3.358 3.359 l 2.021 2.02 c 0.188 0.188 0.293 0.442 0.293 0.707 s -0.105 0.52 -0.293 0.707 l -2.021 2.021 l 3.358 3.358 l 2.021 -2.02 C 66.488 35.926 66.744 35.828 67 35.828 z" style="stroke: none; stroke-width: 1; stroke-dasharray: none; stroke-linecap: butt; stroke-linejoin: miter; stroke-miterlimit: 10; fill: rgb(0,0,0); fill-rule: nonzero; opacity: 1;" transform=" matrix(1 0 0 1 0 0) " stroke-linecap="round"/>
	<path d="M 43.092 67.882 c -0.107 0 -0.217 -0.018 -0.324 -0.054 l -1.892 -0.648 c -0.522 -0.18 -0.801 -0.748 -0.622 -1.271 c 0.179 -0.522 0.747 -0.799 1.27 -0.622 l 1.892 0.648 c 0.522 0.18 0.801 0.748 0.622 1.271 C 43.896 67.621 43.507 67.882 43.092 67.882 z M 46.871 67.879 c -0.413 0 -0.799 -0.258 -0.944 -0.669 c -0.183 -0.521 0.091 -1.092 0.613 -1.274 l 1.888 -0.662 c 0.524 -0.187 1.092 0.093 1.274 0.612 c 0.183 0.521 -0.091 1.092 -0.612 1.274 l -1.888 0.662 C 47.093 67.861 46.98 67.879 46.871 67.879 z M 37.416 65.938 c -0.107 0 -0.216 -0.018 -0.324 -0.054 L 35.2 65.236 c -0.522 -0.179 -0.801 -0.747 -0.623 -1.271 c 0.179 -0.522 0.747 -0.8 1.27 -0.622 l 1.892 0.647 c 0.522 0.179 0.801 0.747 0.623 1.271 C 38.22 65.677 37.831 65.938 37.416 65.938 z M 52.533 65.894 c -0.413 0 -0.799 -0.258 -0.943 -0.669 c -0.183 -0.521 0.091 -1.092 0.612 -1.274 l 1.888 -0.662 c 0.522 -0.186 1.092 0.093 1.274 0.612 c 0.183 0.521 -0.091 1.092 -0.612 1.274 l -1.888 0.662 C 52.755 65.876 52.643 65.894 52.533 65.894 z M 31.739 63.994 c -0.107 0 -0.217 -0.018 -0.324 -0.054 l -1.892 -0.648 c -0.522 -0.18 -0.801 -0.748 -0.622 -1.271 c 0.179 -0.522 0.747 -0.8 1.27 -0.622 l 1.892 0.648 c 0.522 0.18 0.801 0.748 0.622 1.271 C 32.543 63.733 32.155 63.994 31.739 63.994 z M 57.849 63.277 c -0.239 0 -0.479 -0.085 -0.671 -0.259 c -0.409 -0.37 -0.441 -1.003 -0.07 -1.412 c 0.373 -0.412 0.671 -0.882 0.885 -1.395 c 0.213 -0.511 0.799 -0.752 1.308 -0.538 c 0.51 0.213 0.751 0.798 0.538 1.308 c -0.302 0.724 -0.722 1.386 -1.248 1.967 C 58.393 63.166 58.121 63.277 57.849 63.277 z M 59.353 57.657 c -0.525 0 -0.966 -0.409 -0.997 -0.94 c -0.033 -0.56 -0.16 -1.099 -0.376 -1.604 c -0.217 -0.508 0.02 -1.096 0.527 -1.313 c 0.504 -0.216 1.095 0.018 1.313 0.527 c 0.307 0.718 0.485 1.481 0.532 2.271 c 0.033 0.552 -0.388 1.025 -0.938 1.058 C 59.393 57.656 59.372 57.657 59.353 57.657 z M 44.746 54.552 c -0.104 0 -0.21 -0.016 -0.314 -0.051 l -1.899 -0.628 c -0.524 -0.173 -0.809 -0.739 -0.635 -1.263 c 0.173 -0.525 0.74 -0.813 1.263 -0.636 l 1.899 0.628 c 0.524 0.173 0.809 0.739 0.635 1.263 C 45.556 54.286 45.166 54.552 44.746 54.552 z M 48.548 53.478 c -0.421 0 -0.813 -0.268 -0.95 -0.689 c -0.172 -0.525 0.114 -1.09 0.64 -1.261 l 1.901 -0.621 c 0.528 -0.174 1.09 0.115 1.261 0.64 c 0.172 0.525 -0.114 1.09 -0.64 1.261 l -1.901 0.621 C 48.755 53.462 48.65 53.478 48.548 53.478 z M 56.24 52.838 c -0.157 0 -0.317 -0.037 -0.467 -0.116 c -0.494 -0.262 -1.021 -0.435 -1.566 -0.514 c -0.547 -0.079 -0.926 -0.586 -0.846 -1.133 c 0.078 -0.547 0.583 -0.935 1.133 -0.846 c 0.772 0.111 1.518 0.355 2.215 0.725 c 0.488 0.258 0.675 0.863 0.416 1.352 C 56.945 52.645 56.599 52.838 56.24 52.838 z M 39.344 52.097 c -0.257 0 -0.514 -0.099 -0.709 -0.296 c -0.552 -0.556 -1.002 -1.198 -1.336 -1.908 c -0.235 -0.499 -0.021 -1.095 0.479 -1.33 c 0.498 -0.237 1.096 -0.022 1.331 0.479 c 0.237 0.503 0.555 0.957 0.946 1.352 c 0.389 0.392 0.387 1.024 -0.005 1.414 C 39.854 52 39.599 52.097 39.344 52.097 z M 37.647 46.55 c -0.006 0 -0.013 -0.001 -0.019 -0.001 c -0.552 -0.01 -0.991 -0.466 -0.981 -1.018 c 0.015 -0.79 0.162 -1.56 0.437 -2.289 c 0.195 -0.517 0.774 -0.777 1.289 -0.583 c 0.517 0.195 0.777 0.771 0.583 1.289 c -0.194 0.514 -0.297 1.06 -0.308 1.62 C 38.637 46.113 38.191 46.55 37.647 46.55 z M 40.556 41.603 c -0.344 0 -0.679 -0.177 -0.865 -0.496 c -0.278 -0.477 -0.117 -1.089 0.36 -1.368 c 0.679 -0.396 1.414 -0.671 2.182 -0.816 c 0.548 -0.098 1.066 0.255 1.168 0.797 c 0.102 0.543 -0.255 1.066 -0.797 1.168 c -0.543 0.103 -1.063 0.297 -1.545 0.579 C 40.901 41.559 40.728 41.603 40.556 41.603 z M 46.323 40.562 c -0.418 0 -0.809 -0.265 -0.948 -0.684 c -0.175 -0.524 0.107 -1.09 0.631 -1.265 l 1.896 -0.634 c 0.529 -0.175 1.091 0.108 1.266 0.631 c 0.175 0.524 -0.107 1.09 -0.631 1.265 l -1.896 0.634 C 46.535 40.544 46.428 40.562 46.323 40.562 z M 52.014 38.66 c -0.418 0 -0.809 -0.265 -0.948 -0.683 c -0.176 -0.524 0.107 -1.091 0.631 -1.266 l 1.896 -0.634 c 0.523 -0.174 1.091 0.107 1.266 0.631 c 0.176 0.524 -0.107 1.09 -0.631 1.266 l -1.896 0.634 C 52.226 38.643 52.119 38.66 52.014 38.66 z" style="stroke: none; stroke-width: 1; stroke-dasharray: none; stroke-linecap: butt; stroke-linejoin: miter; stroke-miterlimit: 10; fill: rgb(0,0,0); fill-rule: nonzero; opacity: 1;" transform=" matrix(1 0 0 1 0 0) " stroke-linecap="round"/>
</g>
</svg>